<?xml version="1.0" encoding="utf-8"?>
<!-- Generator: Adobe Illustrator 19.0.0, SVG Export Plug-In . SVG Version: 6.00 Build 0)  -->
<svg version="1.1" id="Слой_1" xmlns="http://www.w3.org/2000/svg" xmlns:xlink="http://www.w3.org/1999/xlink" x="0px" y="0px"
	 viewBox="0 0 77 118" style="enable-background:new 0 0 77 118;" xml:space="preserve">
<style type="text/css">
	.st0{fill:#2F71B7;}
	.st1{fill:#FFFFFF;}
</style>
<g>
	<path id="XMLID_8_" class="st0" d="M77,39.3C77,17.6,59.8,0,38.5,0S0,17.6,0,39.3c0,12.4,5.6,23.4,14.4,30.6
		c13.9,14.8,23.5,23.5,23.5,47.6c0,0.7,0.9,0.6,0.9-0.1c0-24.3,9.5-32.2,23.9-47.5C71.4,62.7,77,51.6,77,39.3z"/>
	<path id="XMLID_17_" class="st1" d="M56.4,13.1H32.6c-1.5,0-2.7,1.2-2.7,2.7v45.9c0,1.5,1.2,2.7,2.7,2.7h23.8
		c1.5,0,2.7-1.2,2.7-2.7V15.8C59.1,14.3,57.9,13.1,56.4,13.1z M53.3,54.9c0,1.2-1,2.2-2.2,2.2H37.5c-1.2,0-2.2-1-2.2-2.2V41.4
		c-1.3,0-2.3-1-2.3-2.3s1-2.3,2.3-2.3V20.9c0-1.2,1-2.2,2.2-2.2h13.6c1.2,0,2.2,1,2.2,2.2V54.9z"/>
	<path id="XMLID_15_" class="st1" d="M26.1,15.8v45.9c0,1.5,1.2,2.7,2.7,2.7h-6.4c-1.5,0-2.7-1.2-2.7-2.7V15.8
		c0-1.5,1.2-2.7,2.7-2.7h6.4C27.3,13.1,26.1,14.3,26.1,15.8z"/>
	<path id="XMLID_1_" class="st1" d="M47.4,54h-6.1c-1.5,0-2.7-1.2-2.7-2.7V24.6c0-1.5,1.2-2.7,2.7-2.7h6.1c1.5,0,2.7,1.2,2.7,2.7
		v26.8C50.1,52.8,48.9,54,47.4,54z"/>
</g>
</svg>
