<?xml version="1.0" encoding="utf-8"?>
<!-- Generator: Adobe Illustrator 19.0.0, SVG Export Plug-In . SVG Version: 6.00 Build 0)  -->
<svg version="1.1" id="Слой_1" xmlns="http://www.w3.org/2000/svg" xmlns:xlink="http://www.w3.org/1999/xlink" x="0px" y="0px"
	 viewBox="0 0 77 118" style="enable-background:new 0 0 77 118;" xml:space="preserve">
<style type="text/css">
	.st0{fill:#206396;}
	.st1{fill:#4678BC;}
	.st2{fill:#FFFFFF;}
</style>
<g>
	<path id="XMLID_8_" class="st0" d="M77,39.3C77,17.6,59.8,0,38.5,0S0,17.6,0,39.3c0,12.4,5.6,23.4,14.4,30.6
		c13.9,14.8,23.5,23.5,23.5,47.6c0,0.7,0.9,0.6,0.9-0.1c0-24.3,9.5-32.2,23.9-47.5C71.4,62.7,77,51.7,77,39.3z"/>
	<g id="XMLID_5_">
		<g id="XMLID_7_">
			<path id="XMLID_2_" class="st1" d="M37.7,110c0,0.6,0.1,0.9,0.1,0.9C37.8,110.6,37.8,110.3,37.7,110z"/>
		</g>
		<path id="XMLID_1_" class="st2" d="M31.9,33.7l4.9-8.4c0,0-10.1-7-19.5,2.9c0,0-10.9,12.4,2.8,23.4c0,0,9.3,6.8,18.9-1.5
			c0,0,3.6-3.9,5.9-8.8l7.6,12.9h11.2L45,22.4L33.5,42c0,0-5.1,6.6-10.1-1.1c0,0-2.2-5.5,4.1-7.9C27.5,32.9,29.7,32.5,31.9,33.7z"/>
	</g>
</g>
</svg>
